<svg xmlns="http://www.w3.org/2000/svg" viewBox="0 0 200 200" width="200" height="200">
  <!-- Naklejka manometru: tarcza z czerwonym polem, wskazówka, króciec
       i kawałek węża — obwódka jak w pozostałych naklejkach marki. -->
  <defs>
    <g id="manometr">
      <circle cx="100" cy="92" r="58"/>
      <rect x="89" y="144" width="22" height="20" rx="5"/>
      <path d="M100 164 C100 186 132 188 142 178" fill="none" stroke-width="10"/>
    </g>
  </defs>
  <use href="#manometr" fill="#0e0f11" stroke="#0e0f11" stroke-width="26" stroke-linejoin="round" stroke-linecap="round"/>
  <use href="#manometr" fill="#ffffff" stroke="#ffffff" stroke-width="16" stroke-linejoin="round" stroke-linecap="round"/>
  <path d="M100 164 C100 186 132 188 142 178" fill="none" stroke="#0e0f11" stroke-width="10" stroke-linecap="round"/>
  <path d="M102 166 C103 178 118 182 128 180" fill="none" stroke="#ffffff" stroke-width="2.5" stroke-linecap="round"/>
  <rect x="89" y="144" width="22" height="20" rx="5" fill="#0e0f11"/>
  <circle cx="100" cy="92" r="58" fill="#ffffff" stroke="#0e0f11" stroke-width="6"/>
  <circle cx="100" cy="92" r="47" fill="#f4f3f1" stroke="#0e0f11" stroke-width="3"/>
  <path d="M121 55.6 A42 42 0 0 1 136.4 113" fill="none" stroke="#f0392e" stroke-width="9"/>
  <g stroke="#0e0f11" stroke-width="3" stroke-linecap="round">
    <line x1="73.1" y1="118.9" x2="68.9" y2="123.1"/>
    <line x1="62" y1="92" x2="56" y2="92"/>
    <line x1="73.1" y1="65.1" x2="68.9" y2="60.9"/>
    <line x1="100" y1="54" x2="100" y2="48"/>
    <line x1="126.9" y1="65.1" x2="131.1" y2="60.9"/>
    <line x1="138" y1="92" x2="144" y2="92"/>
    <line x1="126.9" y1="118.9" x2="131.1" y2="123.1"/>
  </g>
  <line x1="100" y1="92" x2="87.7" y2="58.2" stroke="#0e0f11" stroke-width="11" stroke-linecap="round"/>
  <line x1="100" y1="92" x2="87.7" y2="58.2" stroke="#f0392e" stroke-width="5" stroke-linecap="round"/>
  <circle cx="100" cy="92" r="7.5" fill="#0e0f11"/>
  <circle cx="100" cy="92" r="2.5" fill="#ffffff"/>
</svg>
